<svg version="1.1" id="Layer_1" xmlns="http://www.w3.org/2000/svg" xmlns:xlink="http://www.w3.org/1999/xlink" x="0px" y="0px"
	 width="100%" viewBox="0 0 1024 1024" enable-background="new 0 0 1024 1024" xml:space="preserve">
<path fill="#000000" opacity="1.000000" stroke="none" 
	d="
M269.249603,537.539185 
	C267.679443,529.121155 265.794647,521.147217 264.976013,513.065308 
	C264.508545,508.449951 262.479462,507.771759 258.848694,508.429535 
	C250.905777,509.868500 242.873535,509.653992 234.916504,509.221313 
	C206.614960,507.682312 181.200333,497.942108 159.222107,480.196838 
	C142.532700,466.721680 143.754211,452.349701 161.938293,440.905273 
	C176.232010,431.909271 192.403107,427.564484 208.615906,423.734192 
	C228.367691,419.067810 248.246735,414.933746 268.102631,410.719727 
	C271.912323,409.911194 274.026031,408.246338 275.253784,404.306732 
	C280.675934,386.907959 288.169830,370.383087 297.592194,354.775574 
	C299.229614,352.063354 299.212494,350.296356 296.954559,347.896790 
	C263.267609,312.096405 229.690933,276.192261 196.042572,240.355453 
	C191.079834,235.069962 186.895569,234.826797 181.110107,239.074158 
	C180.975769,239.172775 180.829788,239.258957 180.708893,239.371964 
	C171.813049,247.687225 161.790558,252.335281 149.318237,249.034973 
	C135.550079,245.391754 125.039627,237.449097 118.308083,224.889236 
	C109.297768,208.077591 111.626595,186.608002 123.713806,171.849670 
	C127.933983,166.696899 133.364243,163.550537 139.868530,162.756363 
	C153.910873,161.041702 162.026978,153.365112 164.935028,139.573044 
	C169.252594,119.095963 187.446625,114.421257 203.185196,114.901299 
	C211.413239,115.152267 219.202103,117.478561 226.713150,120.988716 
	C246.442062,130.208664 256.323029,158.774307 244.844391,176.272018 
	C240.534576,182.841782 241.510162,186.233124 246.712662,191.939285 
	C277.583771,225.799271 308.451294,259.662537 339.336090,293.509979 
	C340.549164,294.839417 341.526093,296.473480 343.738312,297.267914 
	C349.538147,292.588593 355.364258,287.655457 361.427948,283.034149 
	C396.934448,255.973465 436.907257,239.231857 481.149933,234.023560 
	C552.725769,225.597580 616.669983,244.570831 672.643372,290.113251 
	C679.103027,295.369080 677.451050,295.674988 684.031006,289.442352 
	C716.934570,258.275482 749.846558,227.117447 782.797974,196.001190 
	C788.819641,190.314850 789.626038,185.938385 784.489319,180.101089 
	C776.060303,170.522644 771.389038,160.145889 775.316101,147.175064 
	C779.727478,132.604568 788.558899,121.721550 802.652710,115.928123 
	C818.917603,109.242203 834.602295,111.350471 849.287170,120.985680 
	C856.084106,125.445396 860.255554,131.688431 861.275696,139.730774 
	C862.975098,153.128082 870.304749,161.184708 883.463318,163.955978 
	C903.674011,168.212479 909.337219,184.490692 908.995117,203.082870 
	C908.854431,210.730881 906.510071,218.051392 903.365845,225.183609 
	C894.747437,244.732697 866.203247,256.428131 847.154785,243.976395 
	C840.748291,239.788589 837.255371,240.835724 831.624329,246.343155 
	C797.546387,279.672974 761.595825,310.964478 726.315186,342.983582 
	C723.399597,345.629669 722.887451,347.475800 725.030090,350.887238 
	C734.720764,366.316315 742.644714,382.632050 748.297913,399.979858 
	C749.388367,403.325928 751.094543,404.445099 754.667603,404.818634 
	C788.463074,408.351501 821.114746,416.732117 852.814453,428.853760 
	C858.417969,430.996521 863.614624,434.050385 868.262024,437.952454 
	C876.808044,445.127899 878.680786,454.951965 873.371948,464.845795 
	C869.236328,472.553192 862.801758,478.093536 855.939880,483.155579 
	C828.213989,503.608948 797.302551,513.417480 762.715027,510.767578 
	C762.231628,510.730530 761.735474,510.858948 760.712769,510.965820 
	C759.298401,518.644897 758.027466,526.465027 756.403198,534.211121 
	C747.493958,576.698792 728.600281,614.232788 699.912964,646.771179 
	C697.045593,650.023499 698.057800,651.581909 700.461243,654.049683 
	C734.061951,688.549744 767.629700,723.082214 801.127747,757.681946 
	C810.746155,767.616699 820.083557,777.822937 829.614136,787.843506 
	C835.404602,793.931824 839.092407,794.171692 845.574524,789.142029 
	C867.341003,772.252502 895.291992,778.539734 907.734497,803.599915 
	C916.938660,822.137573 915.005066,839.999084 902.483215,856.629456 
	C898.072571,862.487488 891.949341,865.314392 885.003540,866.223755 
	C871.890259,867.940552 864.099915,875.451050 861.550537,888.011230 
	C857.282593,909.038208 839.754272,913.836365 824.608337,913.781738 
	C813.802917,913.742737 803.662781,910.753357 794.400085,904.755859 
	C780.422546,895.705750 770.042358,870.535767 781.253357,852.507751 
	C785.381531,845.869385 784.580078,842.188049 779.420776,836.842896 
	C736.825989,792.713257 696.052307,746.898560 654.482056,701.820862 
	C654.143311,701.453491 653.843079,701.049866 653.496094,700.690979 
	C644.685181,691.577454 648.234558,692.021790 637.111694,698.136658 
	C633.888306,699.908813 633.154236,701.699219 634.436035,705.287170 
	C640.533936,722.356567 643.503906,739.990662 643.340271,758.154907 
	C643.131409,781.340088 635.585876,802.385864 623.725403,821.806763 
	C601.714844,857.847839 570.197571,880.979980 528.010498,887.251953 
	C486.222351,893.464600 450.456085,879.954773 420.758881,850.391479 
	C399.834534,829.561646 387.096649,804.155518 382.083313,775.150574 
	C380.146454,763.944580 382.530640,752.588074 384.196045,741.402588 
	C385.987915,729.367554 388.946655,717.583984 392.958801,706.098511 
	C394.111969,702.797302 393.420410,700.984314 390.389191,699.201477 
	C380.425507,693.341492 380.477509,693.220886 372.132782,701.322693 
	C339.732849,732.779419 307.385681,764.290710 274.922913,795.682495 
	C262.946289,807.264038 250.684067,818.549866 238.592880,830.013550 
	C232.686203,835.613831 232.024323,840.168640 237.664047,845.972290 
	C254.359940,863.153137 248.090988,884.034180 235.604172,898.006836 
	C219.111450,916.462036 189.627884,918.631836 170.362106,903.119934 
	C165.222336,898.981628 161.515686,893.825134 160.786011,887.257202 
	C159.094757,872.033691 150.522934,864.062500 135.847961,860.828308 
	C122.164436,857.812561 114.467369,847.099915 112.904320,830.411865 
	C111.821320,818.849243 114.340210,807.935852 119.846695,797.664490 
	C129.754211,779.183838 156.802017,770.495178 174.324905,781.468262 
	C180.891098,785.580017 184.625458,784.498901 190.327240,778.974487 
	C226.474152,743.951721 264.158875,710.597778 301.353851,676.712524 
	C309.236847,669.531006 317.035553,662.250244 325.102417,655.280640 
	C328.477844,652.364380 328.728333,650.419922 325.620972,646.897827 
	C297.757782,615.315552 278.883362,579.029541 269.249603,537.539185 
M438.799591,709.616760 
	C477.250427,722.191284 516.579529,725.112366 556.121277,717.321167 
	C634.764526,701.825500 692.539062,657.955017 728.402100,586.137695 
	C748.129822,546.632080 754.751953,504.410339 751.606995,460.514313 
	C751.283630,456.001709 749.480103,453.910400 744.781189,453.170654 
	C728.521484,450.610779 712.366272,447.390381 696.112732,444.787292 
	C670.481140,440.682343 644.704285,437.604034 618.840393,435.465759 
	C598.270813,433.765228 577.656982,432.612946 557.019775,431.821899 
	C528.194824,430.716980 499.359375,430.616333 470.558899,431.608948 
	C438.290894,432.721100 406.101288,435.314056 374.016754,439.188263 
	C341.949463,443.060486 310.102539,448.201843 278.400757,454.335083 
	C274.752075,455.040955 273.440979,457.045105 273.339539,460.533569 
	C272.885315,476.158203 272.351746,491.727234 274.054840,507.375519 
	C277.154205,535.853638 284.918396,562.919312 298.022858,588.264099 
	C328.504974,647.218079 375.305389,687.580322 438.799591,709.616760 
M310.054565,352.502045 
	C305.733429,359.870972 300.891235,366.974487 297.412018,376.407043 
	C441.839874,342.502228 585.051392,343.203613 728.320007,378.456146 
	C728.080994,377.170624 728.072205,376.661835 727.889160,376.226288 
	C727.373413,374.998932 726.847900,373.768372 726.218140,372.597229 
	C681.921448,290.218384 612.500610,247.118423 519.666016,241.550797 
	C493.591675,239.987015 467.839172,244.136612 442.833679,251.887512 
	C386.699188,269.287384 342.769714,302.946075 310.054565,352.502045 
M787.974915,419.638306 
	C760.525940,413.848328 732.590454,412.351685 704.724243,410.331238 
	C686.798523,409.031525 668.836548,408.237854 650.906128,406.996521 
	C627.987488,405.409821 605.056335,404.104065 582.099243,403.259552 
	C561.129639,402.488129 540.139893,402.096222 519.192139,400.937714 
	C487.048096,399.159973 454.977936,400.089050 422.922729,402.494965 
	C398.531769,404.325653 374.148438,406.263336 349.771027,408.266632 
	C325.396606,410.269775 301.050018,412.407990 277.192200,418.309662 
	C251.193649,424.740875 224.624603,428.718903 198.881729,436.258667 
	C187.697830,439.534271 176.506088,442.880554 166.727341,449.600494 
	C160.667511,453.764801 159.431137,456.454102 160.757248,462.912354 
	C162.052124,469.218506 164.937622,471.899719 171.704956,473.266541 
	C173.157333,473.559845 174.617172,474.036102 175.945038,474.689362 
	C182.905457,478.113434 189.821365,481.627838 196.759430,485.097473 
	C199.813049,486.624603 203.255966,487.825623 204.441025,483.343994 
	C205.807327,478.176971 208.612305,478.910950 212.357681,480.099030 
	C217.048080,481.586945 220.887695,484.594940 225.174667,486.781799 
	C233.842178,491.203278 242.924957,494.097046 252.309814,496.535461 
	C259.102020,498.300232 262.780182,496.224548 262.935883,489.110748 
	C263.194550,477.293030 263.697388,465.479309 263.835480,453.660858 
	C263.896759,448.417389 266.144043,445.652588 271.291595,444.875549 
	C274.742218,444.354675 278.180908,443.628113 281.549866,442.716156 
	C292.766052,439.680023 305.288147,441.211700 315.089447,433.171600 
	C315.570099,432.777283 316.321472,432.658691 316.970276,432.531555 
	C332.134644,429.559479 347.131744,425.471313 362.804169,425.963806 
	C369.143646,426.162994 375.409821,425.351654 381.701233,424.474487 
	C389.433838,423.396423 397.344025,421.837341 405.071411,423.310669 
	C417.443085,425.669495 428.498383,422.119019 439.132172,416.770905 
	C444.865173,413.887573 450.492676,413.323425 456.542084,414.451752 
	C458.833038,414.879059 461.084167,415.659698 463.389069,415.851746 
	C491.805023,418.219147 520.217285,418.918701 548.531616,414.689392 
	C555.925659,413.584930 563.116882,414.252228 569.298828,418.090546 
	C576.794128,422.744324 584.876343,423.048584 593.142578,423.800812 
	C602.026001,424.609192 610.633850,422.635864 619.374023,422.151245 
	C650.775208,420.410156 681.288452,427.139221 711.907104,432.529022 
	C724.178589,434.689148 736.363159,437.516357 748.604065,439.744446 
	C760.851074,441.973694 767.340637,448.556946 765.757446,461.101379 
	C765.044250,466.752350 764.794617,472.388916 764.945190,478.051208 
	C765.289001,490.980835 772.013611,495.712677 784.444153,491.608521 
	C789.344971,489.990448 794.245178,489.190277 799.152405,490.776337 
	C813.126160,495.292694 825.528259,491.858337 837.194214,483.860535 
	C840.624634,481.508759 844.351868,479.584045 847.739075,477.176605 
	C854.274780,472.531342 860.617493,467.609406 864.560120,460.371338 
	C868.020935,454.017914 866.949463,449.023407 861.177490,444.605804 
	C855.699829,440.413422 849.485718,437.558838 843.038086,435.239014 
	C825.312805,428.861603 807.135986,424.060669 787.974915,419.638306 
M717.794800,756.706909 
	C740.697449,781.367615 763.024475,806.565613 786.816772,830.395935 
	C794.306152,837.897339 795.870789,847.020020 790.055054,856.362183 
	C781.653503,869.857971 788.343079,887.949341 798.251160,895.418945 
	C808.915039,903.458496 821.019104,905.320129 833.810669,903.155273 
	C843.530518,901.510132 849.939392,896.142944 852.103027,885.916443 
	C855.667236,869.069946 866.057190,859.087830 883.318237,856.725220 
	C889.363098,855.897949 893.684875,852.735474 897.059814,847.767883 
	C905.436584,835.438293 905.978821,818.207275 897.821777,805.735168 
	C891.812866,796.547363 883.263550,790.737122 872.412659,788.605408 
	C863.694275,786.892639 857.442932,791.639526 851.439331,796.909546 
	C851.065063,797.238098 850.639709,797.508850 850.234497,797.801575 
	C840.825439,804.596008 831.741638,804.126343 823.841370,795.665955 
	C803.822083,774.227539 783.422913,753.158630 762.939026,732.168762 
	C739.777771,708.435364 716.570496,684.746582 693.480835,660.943726 
	C690.851196,658.232788 689.129456,658.420654 686.553772,660.971191 
	C679.922302,667.537781 672.790588,673.559692 665.457520,679.342651 
	C662.094421,681.994812 658.195374,684.012268 655.034485,687.854126 
	C675.852600,710.685730 696.591125,733.430115 717.794800,756.706909 
M168.305786,876.504456 
	C169.012436,879.751404 169.710175,883.000366 170.428085,886.244873 
	C171.252396,889.970032 173.242035,892.932800 176.210358,895.322815 
	C190.743088,907.024170 211.831863,906.536804 225.834320,894.142456 
	C240.070236,881.541382 241.546204,866.709412 230.027496,852.018982 
	C229.513672,851.363708 228.996338,850.710388 228.504852,850.038452 
	C222.329559,841.595337 222.505280,833.425781 229.413361,825.502869 
	C232.242783,822.257812 235.648453,819.515076 238.792831,816.544800 
	C282.261353,775.483887 324.866821,733.530579 367.697906,691.810852 
	C368.953217,690.588135 370.683441,689.649536 371.054596,687.365417 
	C360.712738,679.904419 350.586639,672.062256 341.310760,663.185608 
	C336.082886,658.182678 336.101257,658.239563 330.568451,663.293884 
	C317.783264,674.973511 304.974548,686.627502 292.149628,698.263489 
	C260.208862,727.243347 227.992538,755.925293 196.996490,785.928528 
	C188.147476,794.494019 180.069153,796.495178 169.576782,789.897766 
	C156.426514,781.628967 135.885178,789.317139 129.286575,800.960083 
	C123.127396,811.827576 120.600815,823.254578 123.601624,835.516418 
	C125.636589,843.831543 130.192917,850.012146 139.230453,851.791748 
	C141.017029,852.143433 142.728516,852.865356 144.486221,853.376831 
	C156.190460,856.782654 164.205109,864.089600 168.305786,876.504456 
M798.330933,264.827728 
	C807.486328,256.086060 816.645081,247.347931 825.796021,238.601624 
	C833.484985,231.252640 841.295166,230.086929 850.917603,234.823273 
	C853.601868,236.144501 856.233398,237.692139 859.064209,238.574570 
	C868.851013,241.625305 883.483459,236.398010 890.358826,227.588821 
	C896.775085,219.367981 899.928528,209.717407 899.376099,199.611572 
	C898.420715,182.135162 893.224792,175.503510 878.790222,172.782181 
	C875.218872,172.108887 871.836609,170.590393 868.633667,168.711105 
	C858.284912,162.639160 853.471069,153.131958 851.852417,141.719589 
	C850.983948,135.596832 847.629211,131.447433 842.629272,128.191238 
	C823.737183,115.887695 798.662842,122.126259 787.851807,141.884995 
	C781.268860,153.916290 781.975708,161.478271 790.674377,172.081528 
	C800.700195,184.302582 799.847351,194.049057 788.093872,204.546432 
	C780.269897,211.534241 772.606201,218.704803 764.971497,225.900528 
	C747.032593,242.807968 729.140869,259.765533 711.257019,276.731293 
	C702.706543,284.842865 694.217468,293.019135 685.286133,301.562500 
	C697.295654,312.816406 707.308594,325.145355 717.244690,338.382782 
	C744.551453,313.617828 771.182861,289.465332 798.330933,264.827728 
M317.847626,325.384827 
	C322.462738,320.129150 326.975220,314.778625 331.721710,309.644409 
	C336.505096,304.470276 336.568634,304.599396 331.813141,299.394043 
	C300.911194,265.568756 270.010559,231.742233 239.149460,197.879700 
	C231.655762,189.657196 230.787491,182.149963 235.907883,172.233307 
	C244.277435,156.024002 238.618958,138.282242 222.428864,129.810532 
	C215.642548,126.259499 208.345337,124.612183 200.801346,124.476814 
	C185.197601,124.196846 177.487747,130.054199 173.461761,145.076508 
	C171.029739,154.151154 166.227524,161.462357 158.438782,166.734024 
	C153.476013,170.092987 147.678070,171.119568 141.958405,172.173843 
	C136.358521,173.206070 132.202621,175.981796 129.185226,180.834000 
	C123.295197,190.305603 121.187378,200.320053 123.425987,211.382401 
	C127.474243,231.387390 156.384552,252.336441 175.723236,231.436752 
	C183.801910,222.705978 194.548965,224.611923 203.048508,233.669876 
	C233.372330,265.985962 263.596924,298.395142 293.901794,330.729095 
	C297.394836,334.455994 300.583435,338.530396 305.235748,341.863983 
	C309.387482,336.433960 313.398285,331.188202 317.847626,325.384827 
M441.508698,363.234222 
	C436.202454,363.631683 430.885284,363.919250 425.591705,364.444366 
	C389.147644,368.059662 352.979889,373.469147 317.217255,381.425018 
	C309.911469,383.050262 302.648529,384.886963 295.415588,386.813080 
	C291.715820,387.798279 289.947998,390.415009 290.376312,394.328705 
	C290.772705,397.951141 291.473907,401.044800 295.999664,401.977936 
	C301.829285,403.179871 307.571442,402.969971 313.373505,402.283295 
	C340.153290,399.113922 367.007690,396.722626 393.897003,394.742035 
	C410.827209,393.495056 427.771423,392.411072 444.720795,391.457031 
	C470.989349,389.978455 497.276123,388.689636 523.594604,389.150696 
	C561.546143,389.815582 599.476257,391.144287 637.350281,393.793365 
	C656.773560,395.151947 676.144348,397.034515 695.479126,399.327515 
	C705.389038,400.502838 715.268616,402.031189 725.291321,402.060913 
	C728.421936,402.070221 731.002197,401.546570 731.527832,397.870483 
	C732.550537,390.718567 731.554810,389.159149 724.659119,387.381561 
	C688.683105,378.107513 652.175903,371.775391 615.332886,367.083008 
	C581.100525,362.723114 546.723755,360.799805 512.274353,360.512268 
	C488.985352,360.317902 465.665741,360.894257 441.508698,363.234222 
M462.819275,868.634155 
	C540.460632,903.250916 615.419983,845.583923 629.069397,783.843628 
	C552.093384,840.816284 474.098053,842.432007 395.169037,787.424500 
	C402.234619,816.148560 425.217255,850.791931 462.819275,868.634155 
M467.894226,769.807068 
	C461.911560,767.842590 455.928864,765.878113 450.045868,763.946350 
	C448.241882,765.569580 447.908112,767.603699 447.311584,769.473450 
	C444.579803,778.035706 442.238342,786.740601 439.093353,795.146057 
	C437.230072,800.125854 438.712860,802.071838 443.254639,803.972229 
	C462.039917,811.832397 481.590851,816.095703 501.841797,817.521118 
	C504.934509,817.738831 506.043030,816.533569 506.027252,813.553345 
	C505.969910,802.722839 505.967346,791.891296 506.066925,781.061218 
	C506.097015,777.788635 504.964905,776.429138 501.491180,776.105286 
	C490.385773,775.069946 479.387939,773.257141 467.894226,769.807068 
M540.117798,774.889771 
	C533.681213,775.794128 527.229370,776.632874 520.715515,776.340454 
	C517.241089,776.184509 516.009155,777.619324 516.064270,781.044922 
	C516.206299,789.875488 516.041809,798.710693 516.127686,807.542725 
	C516.157837,810.645325 515.519043,813.840698 516.972839,817.228638 
	C539.573242,816.488403 561.007446,811.132080 581.465027,801.620056 
	C583.840454,800.515564 583.750793,798.749573 583.145935,796.602051 
	C580.754578,788.111206 578.234924,779.646484 576.208984,771.066711 
	C575.186462,766.736267 573.344116,766.417908 569.553040,767.749023 
	C560.276733,771.005920 550.728088,773.314331 540.117798,774.889771 
M402.144684,779.337891 
	C409.032104,784.865723 416.465057,789.593079 423.939240,794.267212 
	C427.164154,796.283936 428.930878,795.622375 430.059448,791.876038 
	C432.837738,782.653503 435.728821,773.458313 438.882324,764.358765 
	C440.182892,760.606018 439.304169,758.670837 435.783081,756.877136 
	C422.993622,750.361755 411.220398,742.279968 400.329926,732.917480 
	C399.363129,732.086365 398.580383,730.858704 396.819733,730.924561 
	C395.755402,731.920288 395.571259,733.369690 395.264343,734.830078 
	C393.725677,742.152283 393.561768,749.746887 391.896790,756.948120 
	C389.523651,767.212280 393.154388,773.876343 402.144684,779.337891 
M570.870117,752.277405 
	C568.795898,744.749207 566.693176,737.228760 564.663818,729.688538 
	C563.998047,727.214722 562.781311,726.009216 560.012451,726.592957 
	C546.806763,729.377075 533.389465,730.410706 519.950378,731.158997 
	C517.218445,731.311157 516.088135,732.433289 516.105225,735.135620 
	C516.162964,744.285461 516.172974,753.436157 516.109253,762.585876 
	C516.089172,765.472534 517.121704,766.841370 520.201904,766.764893 
	C536.788696,766.353149 552.872192,763.318054 568.523315,757.851440 
	C570.992615,756.989014 572.210632,755.681213 570.870117,752.277405 
M478.890808,728.894165 
	C474.303772,728.129700 469.716827,727.364563 465.129608,726.601257 
	C463.450836,726.321899 461.503632,725.954651 460.823700,727.976929 
	C457.939240,736.555298 455.227020,745.191650 452.431122,753.871277 
	C468.910156,761.146301 485.399292,764.702026 502.349945,766.477539 
	C505.503082,766.807800 505.994873,765.032898 505.992004,762.564880 
	C505.981537,753.577148 505.946442,744.588989 506.027649,735.601929 
	C506.055847,732.482727 504.785645,731.210449 501.617065,731.005066 
	C494.323273,730.532227 487.050659,729.732117 478.890808,728.894165 
M633.279846,765.286499 
	C634.202759,754.716003 633.699280,744.260010 631.170227,733.080200 
	C616.962952,744.744263 602.332336,754.147278 586.329651,761.318237 
	C584.723022,762.038147 584.059570,763.318787 584.509399,764.965820 
	C587.250549,775.002075 590.049255,785.022583 593.024658,795.754944 
	C608.065002,787.312256 621.336243,777.813232 633.279846,765.286499 
M583.403320,721.095825 
	C580.145386,722.121704 576.584167,722.340149 573.449402,724.626160 
	C576.013733,733.852661 578.532776,742.916199 580.980042,751.721313 
	C581.919983,751.888000 582.298218,752.086060 582.549988,751.981018 
	C599.167969,745.049500 613.930359,735.228210 627.265198,723.194702 
	C628.324097,722.239136 628.908630,721.001892 628.540771,719.603455 
	C627.325745,714.984070 626.521057,710.212097 623.746094,705.553955 
	C610.749451,711.410706 597.726135,716.849243 583.403320,721.095825 
M436.923340,746.515442 
	C439.003479,747.351257 440.734833,749.162170 443.681885,748.856140 
	C446.275574,740.626709 448.885040,732.347290 451.579254,723.798950 
	C435.620514,719.352356 420.714783,714.289124 406.413757,707.567993 
	C405.420471,707.101135 404.311310,706.552612 403.140533,707.436462 
	C400.323151,709.563721 399.586060,718.837219 402.149902,721.260986 
	C412.466156,731.013428 423.958862,739.159668 436.923340,746.515442 
z"/>
<path fill="#000000" opacity="1.000000" stroke="none" 
	d="
M561.113281,490.116241 
	C583.245544,468.854004 608.991455,461.490540 638.147644,470.090149 
	C666.871704,478.562378 684.878967,498.226288 691.679016,527.396729 
	C701.870239,571.114624 670.781982,615.046448 626.334656,620.379517 
	C583.904724,625.470581 545.805481,596.830139 540.070862,554.622375 
	C536.754944,530.216797 543.638000,508.454376 561.113281,490.116241 
z"/>
<path fill="#000000" opacity="1.000000" stroke="none" 
	d="
M446.308350,476.592438 
	C475.100342,494.269318 487.913208,519.942017 485.131897,552.971252 
	C482.249573,587.199707 452.234772,616.306641 418.209930,620.504822 
	C378.744812,625.374268 337.877289,598.748535 332.085510,553.885498 
	C326.687225,512.070801 353.796539,477.570953 390.859375,468.812164 
	C410.187836,464.244415 428.536530,467.150848 446.308350,476.592438 
z"/>
<path fill="#000000" opacity="1.000000" stroke="none" 
	d="
M511.664062,614.211182 
	C526.476868,616.425659 536.677979,625.868103 538.238281,638.495117 
	C539.956238,652.397461 533.434998,664.451416 520.949707,669.692200 
	C509.759766,674.389343 499.200562,672.598083 490.295898,664.549194 
	C481.562500,656.655090 478.503387,646.450195 481.927063,635.040283 
	C485.378662,623.537415 493.175171,616.450134 505.306610,614.644531 
	C507.267883,614.352661 509.264832,614.300354 511.664062,614.211182 
z"/>
<path fill="#000000" opacity="1.000000" stroke="none" 
	d="
M199.549377,462.743561 
	C201.299057,463.338959 202.777985,463.696411 204.058716,464.409698 
	C205.898651,465.434357 206.025665,467.014648 204.622147,468.509033 
	C203.851028,469.330078 202.829239,469.961792 201.828964,470.512695 
	C198.907776,472.121338 195.945663,472.697083 193.000259,470.513306 
	C191.843109,469.655334 191.031708,468.551025 191.663895,467.129028 
	C193.093277,463.913788 195.687378,462.477875 199.549377,462.743561 
z"/>
</svg>